<svg width="24" height="24" viewBox="0 0 24 24" fill="none" xmlns="http://www.w3.org/2000/svg">
<rect width="24" height="24" rx="12" fill="#F9DEE5"/>
<path d="M13.0689 21H10.9386C10.637 20.9979 10.344 20.894 10.1023 20.7033C9.86063 20.5126 9.68285 20.2453 9.59501 19.9402C9.47251 19.5214 9.22608 19.1554 8.89198 18.896C8.55787 18.6366 8.15378 18.4977 7.73934 18.4996C7.67383 18.4956 7.60819 18.4956 7.54268 18.4996C7.48427 18.5056 7.4253 18.4987 7.36961 18.4791C7.31392 18.4595 7.26271 18.4278 7.21934 18.386C7.17596 18.3442 7.14139 18.2932 7.11781 18.2364C7.09423 18.1796 7.08219 18.1181 7.08247 18.056V11.7206C7.08181 11.5914 7.04172 11.4658 6.96817 11.3625C6.89462 11.2593 6.79149 11.1839 6.67419 11.1476L4.01319 10.3311C3.72176 10.2407 3.46571 10.0531 3.28315 9.79638C3.1006 9.53965 3.0013 9.22747 3 8.90624V7.05348C2.99959 6.70424 3.11596 6.36612 3.32855 6.09889C3.54114 5.83167 3.83624 5.65257 4.16165 5.59328L7.34596 5.00449C7.42628 4.9985 7.5069 4.9985 7.58721 5.00449H8.77482C9.07585 5.00678 9.3683 5.11088 9.60937 5.30157C9.85044 5.49227 10.0275 5.75954 10.1146 6.0643C10.4338 7.13982 11.5212 7.24188 11.9703 7.24188C12.4193 7.24188 13.5105 7.12805 13.8259 6.0643C13.9131 5.75954 14.0902 5.49227 14.3312 5.30157C14.5723 5.11088 14.8647 5.00678 15.1657 5.00449H16.4165C16.4974 5.00435 16.5782 5.01226 16.6577 5.02807L19.8421 5.61293C20.1671 5.67231 20.4617 5.85152 20.6737 6.11883C20.8857 6.38613 21.0013 6.72425 21 7.07312V8.9337C20.9989 9.25443 20.9001 9.56626 20.7183 9.82292C20.5364 10.0796 20.2812 10.2674 19.9905 10.3586L17.3258 11.175C17.2091 11.212 17.1069 11.2877 17.034 11.3909C16.9612 11.4941 16.9217 11.6194 16.9212 11.7481V18.0835C16.9215 18.1456 16.9094 18.207 16.8858 18.2639C16.8623 18.3207 16.8277 18.3717 16.7843 18.4135C16.7409 18.4553 16.6897 18.487 16.634 18.5065C16.5784 18.5261 16.5194 18.5331 16.461 18.5271C16.3955 18.523 16.3298 18.523 16.2643 18.5271C15.8499 18.5251 15.4458 18.6641 15.1117 18.9235C14.7776 19.1829 14.5311 19.5489 14.4087 19.9676C14.3165 20.267 14.1373 20.5279 13.8968 20.7132C13.6562 20.8986 13.3665 20.999 13.0689 21ZM7.92124 17.6203C8.48127 17.6578 9.01735 17.874 9.45869 18.2406C9.90002 18.6071 10.2258 19.1067 10.393 19.6733C10.4271 19.7992 10.4985 19.9102 10.5967 19.9901C10.6949 20.0699 10.8147 20.1143 10.9386 20.1168H13.0689C13.1925 20.1137 13.3121 20.0691 13.4101 19.9893C13.5082 19.9096 13.5798 19.7989 13.6144 19.6733C13.7811 19.1064 14.1068 18.6066 14.5482 18.2399C14.9896 17.8733 15.526 17.6572 16.0862 17.6203V11.7324C16.0872 11.4117 16.186 11.0999 16.3678 10.8432C16.5497 10.5865 16.8049 10.3987 17.0957 10.3075L19.7604 9.49111C19.8777 9.45478 19.9808 9.37936 20.0543 9.27611C20.1279 9.17286 20.168 9.04726 20.1687 8.91798V7.06526C20.1689 6.92456 20.122 6.78828 20.0365 6.68055C19.9509 6.57281 19.8321 6.50054 19.701 6.47647L16.5167 5.89161C16.4846 5.88775 16.4522 5.88775 16.4202 5.89161H15.1694C15.0463 5.89493 14.9273 5.93972 14.8298 6.0195C14.7324 6.09927 14.6615 6.20987 14.6276 6.33517C14.2899 7.46565 13.2989 8.14471 11.9703 8.14471C10.6416 8.14471 9.65439 7.46565 9.31666 6.33517C9.28273 6.20987 9.21192 6.09927 9.11447 6.0195C9.01701 5.93972 8.89801 5.89493 8.77482 5.89161H7.57606C7.54401 5.88754 7.51162 5.88754 7.47957 5.89161L4.29525 6.47647C4.16418 6.50054 4.04534 6.57281 3.95978 6.68055C3.87421 6.78828 3.82741 6.92456 3.82762 7.06526V8.9337C3.82805 9.06247 3.86759 9.18768 3.94043 9.29087C4.01327 9.39405 4.11553 9.46974 4.23215 9.50677L6.89691 10.3233C7.18834 10.4137 7.44434 10.6012 7.6269 10.858C7.80945 11.1147 7.90879 11.4269 7.91009 11.7481L7.92124 17.6203Z" fill="#231F20"/>
<path d="M12.8918 11C12.7892 11.1796 12.6552 11.3256 12.5005 11.4263C12.3459 11.5269 12.1751 11.5793 12.0018 11.5793C11.8285 11.5793 11.6576 11.5269 11.503 11.4263C11.3484 11.3256 11.2143 11.1796 11.1117 11C10.8175 11 10.5352 11.15 10.3269 11.4172C10.1185 11.6844 10.0009 12.0469 10 12.4254C10 13.8462 12.0018 15 12.0018 15C12.0018 15 14 13.8462 14 12.4254C14 12.2382 13.9713 12.0528 13.9157 11.8799C13.86 11.707 13.7783 11.5498 13.6754 11.4175C13.5725 11.2851 13.4503 11.1801 13.3159 11.1085C13.1814 11.0369 13.0373 11 12.8918 11Z" fill="#231F20"/>
</svg>
